<svg xmlns="http://www.w3.org/2000/svg" xmlns:xlink="http://www.w3.org/1999/xlink" id="图层_1" data-name="图层 1" viewBox="0 0 209.47 315.87" width="200" height="80">
  <defs>
    <style>
      .cls-1{fill:#006eff;}
      .cls-2{fill:url(#未命名的渐变_39);}
      .cls-3{fill:url(#未命名的渐变_39-2);}
      .cls-4{fill:url(#未命名的渐变_39-3);}
      .cls-5{fill:#fff;}
      .cls-6{fill:url(#未命名的渐变_39-4);}
    </style>
    <linearGradient id="未命名的渐变_39" x1="247.19" y1="362.96" x2="212.72" y2="218.96" gradientUnits="userSpaceOnUse">
      <stop offset="0" stop-color="#006eff"/>
      <stop offset="1" stop-color="#006eff"/>
    </linearGradient>
    <linearGradient id="未命名的渐变_39-2" x1="382.19" y1="330.65" x2="347.73" y2="186.65" xlink:href="#未命名的渐变_39"/>
    <linearGradient id="未命名的渐变_39-3" x1="321.77" y1="347.44" x2="292.18" y2="223.82" xlink:href="#未命名的渐变_39"/>
    <linearGradient id="未命名的渐变_39-4" x1="199.17" y1="215.66" x2="164.71" y2="71.66" xlink:href="#未命名的渐变_39"/>
  </defs>
  <title>Qomo Logo</title>
  <path class="cls-1" d="M221.38,427.85l-5.72,5.93-6.21-5.89a25,25,0,0,1-7.45,2.85,29.18,29.18,0,0,1-6,.65,27.85,27.85,0,0,1-9.57-1.67,21.64,21.64,0,0,1-10.6-7.8q-5-6.92-5-18.06t5-18.06a21.55,21.55,0,0,1,10.58-7.8,28.37,28.37,0,0,1,19.18,0,21.63,21.63,0,0,1,10.58,7.79q5,6.91,5,18.06a35.91,35.91,0,0,1-1.46,10.7,24.88,24.88,0,0,1-4,7.94Zm-24.76-12.06,5.62-5.91,5.55,5.18a18.56,18.56,0,0,0,1.78-4.84,29.19,29.19,0,0,0,.62-6.37q0-9.9-4.89-14.62a12.79,12.79,0,0,0-9.33-3.64,13,13,0,0,0-9.34,3.64q-4.89,4.72-4.89,14.63t4.89,14.63a12.8,12.8,0,0,0,9.34,3.64,13.9,13.9,0,0,0,3-.33,11.58,11.58,0,0,0,2.88-1.05Z" transform="translate(-170.8 -117.91)"/>
  <path class="cls-1" d="M268,410.61q0,10-6,15.46-5.4,5-13.85,5t-13.86-5q-6-5.47-6-15.46t6-15.47q5.38-5,13.86-4.95T262,395.14Q268,400.62,268,410.61Zm-10.5,0a15.41,15.41,0,0,0-1.68-7.73c-1.55-2.73-4.11-4.09-7.65-4.09s-6,1.34-7.59,4a18.46,18.46,0,0,0-.07,15.54c1.55,2.72,4.11,4.08,7.66,4.08s6-1.33,7.58-4A15.53,15.53,0,0,0,257.45,410.61Z" transform="translate(-170.8 -117.91)"/>
  <path class="cls-1" d="M332.06,403.17V430H321.85V406.45q0-4.08-1.49-5.87a5,5,0,0,0-4.05-1.79q-3.65,0-5.29,2.12a9.31,9.31,0,0,0-1.64,5.83V430H299.17V406.67a12.88,12.88,0,0,0-.73-5.18q-1.32-2.7-5.4-2.7-3.35,0-4.85,2a9.27,9.27,0,0,0-1.49,5.55V430H276.49v-38.8h9.77v5.69a14.17,14.17,0,0,1,3.5-4.31,12,12,0,0,1,7.66-2.4,11.9,11.9,0,0,1,6.34,1.45,15.2,15.2,0,0,1,4.45,4.74,18.23,18.23,0,0,1,3.29-3.79,10.94,10.94,0,0,1,7.07-2.4,14,14,0,0,1,9.7,3.39Q332.07,397,332.06,403.17Z" transform="translate(-170.8 -117.91)"/>
  <path class="cls-1" d="M380.27,410.61q0,10-6,15.46-5.4,5-13.86,5t-13.85-5q-6-5.47-6-15.46t6-15.47q5.39-5,13.85-4.95t13.86,4.95Q380.28,400.62,380.27,410.61Zm-10.5,0a15.41,15.41,0,0,0-1.68-7.73c-1.55-2.73-4.11-4.09-7.66-4.09s-6,1.34-7.58,4a18.46,18.46,0,0,0-.07,15.54q2.33,4.08,7.65,4.08c3.5,0,6-1.33,7.59-4A15.53,15.53,0,0,0,369.77,410.61Z" transform="translate(-170.8 -117.91)"/>
  <path class="cls-2" d="M308,341.1l-.12.39-1.41,4.43-1.09,3.41-11.2-3.57-26.89-8.56-2.33.34-81.12,11.77-7.48-6.48V163.89l9-6,50,20.78a22.82,22.82,0,0,0,9.85,14,38,38,0,0,0-4,2.59l-51.84-21.54V335.27l59.08-8.57,4.43-.64,1.9-.27a76.74,76.74,0,0,0,46.47,15.61Q304.67,341.4,308,341.1Z" transform="translate(-170.8 -117.91)"/>
  <path class="cls-3" d="M374.64,123.14v56H361.55V136.24L307.6,176.78a6,6,0,0,1-.51-2c-.33-3.39-3.34-6.6-6.5-9.1l63.58-47.77Z" transform="translate(-170.8 -117.91)"/>
  <path class="cls-4" d="M338.3,346.08l-4,12.47-29-9.22,1.09-3.41,1.41-4.43.12-.39a74.11,74.11,0,0,0,9.88-1.53l.24.08,8.07,2.57Z" transform="translate(-170.8 -117.91)"/>
  <path class="cls-1" d="M272.54,254.53A14.45,14.45,0,1,0,266.46,274,14.46,14.46,0,0,0,272.54,254.53Zm-15.79,9.24A5.28,5.28,0,1,1,262,258.5,5.27,5.27,0,0,1,256.75,263.77Z" transform="translate(-170.8 -117.91)"/>
  <path class="cls-1" d="M339.68,230.64a4.05,4.05,0,0,1-5.47-1.7,9.39,9.39,0,0,0-16.63,8.73,4.05,4.05,0,0,1-7.17,3.77,17.5,17.5,0,0,1,31-16.27A4.06,4.06,0,0,1,339.68,230.64Z" transform="translate(-170.8 -117.91)"/>
  <path class="cls-5" d="M320.2,339l-.55.15c-.54.14-1,.3-1.55.48-1.7.59-3.19,1.32-4.57,1.75a10.47,10.47,0,0,1-5.37.14l-.3-.05c-1.85-.24-6.88.4-9.25.05s-6.87-.73-7.75-.14-6-.92-6.69-.92-8.5-3.46-10.41-3.34-8.08-3.1-10.71-4.53-7.28-4.18-7.28-4.18l-2.83-2.37-4.46-3.72.82-1.17q2.65,2.44,5.54,4.62a76.74,76.74,0,0,0,46.47,15.61q3.36,0,6.67-.3a74.11,74.11,0,0,0,9.88-1.53C318.65,339.41,319.43,339.22,320.2,339Z" transform="translate(-170.8 -117.91)"/>
  <path class="cls-5" d="M325.36,337.52l-.08,0-.19.06Z" transform="translate(-170.8 -117.91)"/>
  <path class="cls-1" d="M315.37,269.12a10.27,10.27,0,0,1-4.1,6.37A14.22,14.22,0,0,1,300,278.26c.67-2.53,2.18-6.26,5.46-8.17C308.38,268.41,312.36,268.6,315.37,269.12Z" transform="translate(-170.8 -117.91)"/>
  <path class="cls-1" d="M315.69,266.57c-3.42-.57-8-.73-11.49,1.31-4,2.34-5.85,6.69-6.64,9.65a16.13,16.13,0,0,1-7.49-6.42c-4-6.37,2.37-4.9,6.23-5.36a10,10,0,0,0,5.6-2.18c3.9-1.69,4.14-8.15,8.07-8.9C312.5,254.19,315.91,260.43,315.69,266.57Z" transform="translate(-170.8 -117.91)"/>
  <path class="cls-1" d="M368.16,217.31l-.11-.33-.21-.29a81.82,81.82,0,0,0-66.52-34.19,81.41,81.41,0,0,0-17.57,1.91c-2.38.51-4.71,1.14-7,1.87h0c-1.56.49-3.08,1-4.6,1.62h0a79.23,79.23,0,0,0-9.85,4.55h0a81.84,81.84,0,0,0-38.38,98.22c-4.11,2.29-13.53,8.58-16,19.38-1.87,8.29,5.42,15.94,13.26,18.28a18.52,18.52,0,0,0,5.22.77c5.39,0,11-2.54,14.75-9.47h0A82.87,82.87,0,0,0,265,337.55a80.94,80.94,0,0,0,29.22,8.22c2.35.22,4.74.32,7.15.32,1.72,0,3.43,0,5.14-.16A82,82,0,0,0,371.67,306l.33-.55V241.28A76.22,76.22,0,0,0,368.16,217.31ZM222.5,323.85c-6.45-1.93-11.14-7.89-10-12.76,1.91-8.43,9.36-13.77,13.1-16h0a81.74,81.74,0,0,0,12.24,20.65C233.45,325.85,225.71,324.81,222.5,323.85ZM367.33,304.2a75.91,75.91,0,0,1-5.77,8.24,77.79,77.79,0,0,1-36.19,25.09l-.27.09c-.16.05-.31.09-.46.15l-.91.27c-1.16.36-2.34.69-3.52,1-.77.2-1.55.39-2.34.55a74.11,74.11,0,0,1-9.88,1.53q-3.32.3-6.67.3a76.74,76.74,0,0,1-46.47-15.61q-2.88-2.18-5.54-4.62a77.09,77.09,0,1,1,112.25-105c.79,1,1.54,2,2.27,3a71.52,71.52,0,0,1,3.5,22.16Z" transform="translate(-170.8 -117.91)"/>
  <path class="cls-1" d="M268.19,156.5h0a11.49,11.49,0,0,0-2.83-.35,11.86,11.86,0,1,0,2.84.35Zm-2.84,18.65a7.17,7.17,0,1,1,7.17-7.17A7.17,7.17,0,0,1,265.35,175.15Z" transform="translate(-170.8 -117.91)"/>
  <path class="cls-1" d="M299,173.12c-1.79-2.65-5.33-5.05-9-6.42h0a24.67,24.67,0,1,0-27.73,25.75h0a24.14,24.14,0,0,0,3.08.2,24.72,24.72,0,0,0,18.4-8.24,24.39,24.39,0,0,0,3-4.15h0a18.62,18.62,0,0,0,7.18,1.72c2.73,0,4.78-1,5.77-3C300.21,178,300.8,175.84,299,173.12Zm-29.52,14.43h0a20.46,20.46,0,0,1-4.08.42,19.79,19.79,0,0,1-10.73-3.14h0a20.49,20.49,0,0,1-4.61-4.05,19.9,19.9,0,0,1-4.64-12.8,19.59,19.59,0,0,1,.62-4.93h0a20,20,0,0,1,33-9.72h0c.42.39.82.8,1.21,1.22s.5.59.74.89l.37.44a19.8,19.8,0,0,1,3.93,9.68h0a10.25,10.25,0,0,0-1.75,0,7.44,7.44,0,0,0-3.44,1.1,6,6,0,0,0-2.18,2.53c-1.28,2.8.58,6.1,4.8,8.86A20.12,20.12,0,0,1,269.43,187.55Zm26.09-10.63c-.13.25-1.17.64-3.47.16-5.07-1.05-9.78-4.67-9.95-6,.12-.25.45-.76,1.73-.86,3.39-.29,9.28,2.6,11.25,5.52C295.49,176.33,295.59,176.77,295.52,176.92Z" transform="translate(-170.8 -117.91)"/>
  <polygon class="cls-6" points="203.84 61.26 203.84 244.52 195.31 250.76 163.53 240.64 167.5 228.17 190.75 235.57 190.75 61.26 203.84 61.26"/>
</svg>
